<svg width="288" height="189" viewBox="0 0 288 189" fill="none" xmlns="http://www.w3.org/2000/svg">
<path d="M60.2351 152.473L143.442 96.4083C147.43 94.8665 148.127 96.2719 148.733 97.2938C147.54 102.932 146.525 121.018 144.599 129.741C140.971 146.163 137.448 155.204 134.736 164.94C136.662 166.643 140.858 166.54 142.716 166.276L151.722 133.608L159.287 101.821L153.471 136.576L160.186 169.199C161.641 170.306 163.326 171.796 166.821 170.31C166.321 160.602 158.239 148.445 159.618 134.929C161.019 121.199 171.915 106.128 175.725 98.5312C192.675 104.561 204.41 99.9659 214.21 100.225C213.966 109.936 226.836 128.487 227.926 131.258C224.181 137.535 213.892 158.539 209.215 168.256C211.897 169.597 217.349 171.758 217.698 169.676C222.402 150.649 236.903 134.026 243.566 128.093C240.292 124.266 233.362 114.873 231.831 107.92C230.301 100.967 233.893 102.311 235.88 103.851C241.204 111.934 252.821 130.678 256.69 140.991C260.56 151.304 257.335 172.397 255.239 181.654C258.72 182.351 265.497 183.405 264.759 182.039C263.836 180.331 262.842 155.31 264.665 125.324C246.767 111.542 257.428 75.6992 263.082 78.0262C262.504 91.3921 266.447 95.0724 268.491 95.2419C286.959 43.1871 262.303 46.5689 258.271 45.8943C255.768 41.2467 236.019 31.2968 219.189 35.9021C202.358 40.5073 167.736 39.46 155.557 38.9752C145.813 38.5873 128.178 61.5491 120.579 73.0785C112.006 80.7917 92.2371 97.6602 81.7394 103.429C82.4699 99.0636 82.0433 86.1336 80.9828 80.0876C80.1344 75.2507 77.9836 85.6266 77.0143 91.4191C68.0567 79.0751 48.9349 54.0645 44.1084 52.7735C38.0753 51.1598 51.2699 64.1553 61.0767 76.7564C70.8835 89.3575 58.1307 87.1371 54.2393 86.1407C51.1261 85.3436 41.2059 76.8256 36.635 72.6662C36.0607 73.1742 37.6211 76.6802 48.4569 86.6402C62.0018 99.0902 69.5686 87.4115 74.5193 96.5247C79.4701 105.638 66.5575 113.66 63.9857 106.326C61.9282 100.459 53.5104 95.6557 49.5587 93.9875C39.804 88.2989 25.2395 71.6223 12.4978 74.4956C21.8495 75.163 39.1495 90.1457 46.6306 97.5537C44.5113 98.6949 38.5983 100.973 31.9006 100.957C14.0855 93.9025 9.84488 94.6484 9.95149 95.9032C17.2113 98.614 31.3135 104.363 29.6439 105.671C24.9514 109.977 4.49562 113.027 7.01539 113.448C17.7646 118.354 28.787 110.792 41.7546 104.505C52.1288 99.4748 57.1462 102.996 58.3582 105.385C58.564 112.582 57.2016 130.045 50.1049 142.32C43.0082 154.595 53.9014 154.203 60.2351 152.473Z" fill="#843E3F" stroke="black" stroke-width="2"/>
<path d="M60.235 152.467L143.441 96.4026C137.522 95.3257 118.809 98.701 91.3085 120.817C56.9333 148.463 69.9361 149.125 50.4275 152.77C53.0739 153.824 57.1836 153.301 60.235 152.467Z" fill="#362015"/>
<path d="M264.758 182.033C263.835 180.325 262.842 155.305 264.665 125.319C249.406 113.568 254.905 85.782 260.363 79.287C252.963 83.0213 234.918 94.6511 232.171 102.897C233.583 102.199 235.531 103.261 235.88 103.846C241.204 111.928 252.821 130.672 256.69 140.985C260.56 151.298 257.335 172.391 255.239 181.648C258.72 182.346 265.497 183.399 264.758 182.033Z" fill="#362015"/>
<path d="M175.724 98.5255C192.675 104.555 204.41 99.9602 214.21 100.219C214.108 97.1531 214.866 90.1977 218.71 86.9057C223.516 82.7906 188.109 84.3735 178.366 82.7431C168.623 81.1126 178.689 80.8124 175.724 98.5255Z" fill="#362015"/>
<path d="M147.757 96.0049C148.145 96.0697 155.486 100.021 159.108 101.988L151.544 134.093C149.725 140.795 145.446 156.601 142.882 166.213C138.023 167.153 135.302 165.675 134.548 164.818C137.333 155.522 143.163 135.719 144.213 130.874C145.263 126.029 147.667 106.465 148.738 97.2889C148.637 97.0979 148.3 96.5738 147.757 96.0049Z" fill="#362015"/>
<path d="M60.235 152.467L143.441 96.4026C137.522 95.3257 118.809 98.701 91.3085 120.817C56.9333 148.463 69.9361 149.125 50.4275 152.77C53.0739 153.824 57.1836 153.301 60.235 152.467Z" stroke="black" stroke-width="2"/>
<path d="M264.758 182.033C263.835 180.325 262.842 155.305 264.665 125.319C249.406 113.568 254.905 85.782 260.363 79.287C252.963 83.0213 234.918 94.6511 232.171 102.897C233.583 102.199 235.531 103.261 235.88 103.846C241.204 111.928 252.821 130.672 256.69 140.985C260.56 151.298 257.335 172.391 255.239 181.648C258.72 182.346 265.497 183.399 264.758 182.033Z" stroke="black" stroke-width="2"/>
<path d="M175.724 98.5255C192.675 104.555 204.41 99.9602 214.21 100.219C214.108 97.1531 214.866 90.1977 218.71 86.9057C223.516 82.7906 188.109 84.3735 178.366 82.7431C168.623 81.1126 178.689 80.8124 175.724 98.5255Z" stroke="black" stroke-width="2"/>
<path d="M147.757 96.0049C148.145 96.0697 155.486 100.021 159.108 101.988L151.544 134.093C149.725 140.795 145.446 156.601 142.882 166.213C138.023 167.153 135.302 165.675 134.548 164.818C137.333 155.522 143.163 135.719 144.213 130.874C145.263 126.029 147.667 106.465 148.738 97.2889C148.637 97.0979 148.3 96.5738 147.757 96.0049Z" stroke="black" stroke-width="2"/>
<path d="M120.579 73.0802C112.006 80.7934 92.2371 97.662 81.7393 103.431C94.2788 107.958 131.371 85.0023 133.959 78.4626C144.701 55.2278 153.551 49.8611 156.634 50.0822C193.029 58.7627 206.417 51.4402 221.248 46.7499C233.112 42.9976 255.937 54.9457 265.867 61.3888C264.23 64.2764 263.328 73.6848 263.082 78.028C262.503 91.3938 266.447 95.0742 268.491 95.2436C286.959 43.1888 262.303 46.5707 258.271 45.896C255.768 41.2484 236.019 31.2986 219.189 35.9038C202.358 40.509 167.736 39.4618 155.557 38.9769C145.813 38.5891 128.178 61.5509 120.579 73.0802Z" fill="#AE6568" stroke="black" stroke-width="2"/>
</svg>
